<svg xmlns="http://www.w3.org/2000/svg" fill="none" viewBox="0 0 700 259"><g clip-path="url(#a)"><path fill="#D4E2FC" d="M0 0h700v259H0z"/><path fill="#D4E2FC" d="M0 13.22c273.367 50.848 418.057-47.122 700 0v274H0z"/><path fill="#A0BFF8" d="m457 87.338 408 .79-21.477 4.372L440 90.33V24l6.5 1.996z"/><path fill="#000" d="m849.5 85.5-15.88 3-391.12-.35V85.5zm-407-67h407v67h-407z"/><path fill="#000" d="M689 74.5c-8.284 0-15-6.716-15-15s6.716-15 15-15 15 6.716 15 15-6.716 15-15 15"/><path fill="#3D281E" d="M443 26v59h273.5l.901-47.296H850V26z"/><path fill="#744C3A" d="M428.5 18.5v-10h435v10z"/><path fill="#000" d="m428.508 18.48 13.984 7.992v-7.978zM512.5 48l3.063 119H532L515.071 48zM477 167h16.437L496.5 48h-2.571z"/><path fill="#556268" d="m514.5 48 8.811 119H538.5L517.668 48zm-44 119h15.189L494.5 48h-3.168z"/><path fill="#000" d="m517.706 48 2.794 15.699A17.8 17.8 0 0 1 516.083 69L514.5 48zM488.5 63.685 491.294 48h3.206l-1.583 21a18.2 18.2 0 0 1-4.417-5.315"/><path fill="#394145" d="M416.435 167a105 105 0 0 0-10.935 46.647V259h198v-92z"/><path fill="#000" d="M546.249 167 548 259h-93.5c70.026-13.014 77.495-80.839 77.495-80.839z"/><path fill="#556268" d="M416.262 167H603.5v11h-192a103 103 0 0 1 4.762-11"/><path fill="gray" d="M599 70c-8.284 0-15-6.716-15-15s6.716-15 15-15 15 6.716 15 15-6.716 15-15 15"/><path fill="#FA9269" d="M599 70c-8.284 0-15-6.716-15-15s6.716-15 15-15 15 6.716 15 15-6.716 15-15 15"/><path fill="#744C3A" d="M504.5 70c-8.284 0-15-6.716-15-15s6.716-15 15-15 15 6.716 15 15-6.716 15-15 15"/><path fill="#99644C" d="M504.5 70c-8.284 0-15-6.716-15-15s6.716-15 15-15 15 6.716 15 15-6.716 15-15 15"/><path fill="#5C3C2E" d="M515 65.62c-5.84 5.84-15.298 5.84-21.125 0-5.827-5.838-5.84-15.295 0-21.12l10.651 10.648z"/><path fill="#99644C" d="M504.5 66c-6.075 0-11-4.925-11-11s4.925-11 11-11 11 4.925 11 11-4.925 11-11 11"/><path fill="#744C3A" d="M504.5 63.5a8.5 8.5 0 1 1 0-17 8.5 8.5 0 0 1 0 17"/><path fill="#4E7C19" d="m641.027 153.1-6.012-11.357 8.698-8.295a8.65 8.65 0 0 0 1.608-10.414l-4.689-9.552H669s-24.81-62.55-44.918-75.274c-7.879-4.988-16.74-7.708-27.345-7.708-37.625 0-48.244 43.937-48.244 63.015s3.994 28.549-1.759 35.355h8.057l-16.222 33.892a123.3 123.3 0 0 0-11.956 47.818L524.5 259h136.662l-10.279-75.219a92.2 92.2 0 0 0-9.856-30.681"/><path fill="#29410D" d="M524.5 259h32l-1.909-130-16.116 33.858a123.6 123.6 0 0 0-11.876 47.771z"/><path fill="#29410D" d="m599.5 83-47 87.536 3.836 49.964a147.4 147.4 0 0 1 10.72-57.355z"/><path fill="#4E7C19" d="M652.595 197.5 613 207.202l1.941 12.955s20.755 1.819 27.365 5.843c0 0 4.738-8.131 16.194-14.774z"/><path fill="#29410D" d="M611 259h10l-2.984-27.5zm-18.5-101.989c23.653.44 41.348 13.382 41.348 13.382s3.34-11.389 8.385-14.893l2.767 6.238c-6.108 5.097-8.698 19.262-8.698 19.262s-17.286-20.829-43.802-23.989m43.182 59.823c-.534-2.143.118-4.153 1.458-4.489 1.339-.335 2.858 1.13 3.392 3.274.535 2.143-.118 4.153-1.457 4.489-1.339.335-2.858-1.13-3.393-3.274"/><path fill="#fff" d="M636.182 215.834c-.534-2.143.118-4.153 1.458-4.489 1.339-.335 2.858 1.13 3.392 3.274.535 2.143-.118 4.153-1.457 4.489-1.339.335-2.858-1.13-3.393-3.274"/><path fill="#29410D" d="M614.941 219.724c16.384.041 27.365 5.746 27.365 5.746 2.864-4.838 12.556-12.25 12.556-12.25l.638 4.675c-2.199 1.829-10.045 8.523-13.072 13.605 0 0-14.212-6.613-28.98-6.233L613 207zm-60.39-91.224H546.5c4.823-5.681 2.806-13.252 2.03-26.761L575 86zM629.5 91l11.028 22.5H669zm9 47.573L634.956 142 613 100zM604.299 259 590 149l25 110z"/><path fill="#29410D" d="M590 42.796c-2.243 1.713-26.002 55.126-26.002 55.126l-15.74 4.578c-.149-2.604-.258-5.4-.258-8.457 0-13.678 5.423-40.09 22.21-54.043 2.474 4.77 11.186 7.538 19.79 2.796m50.093 70.704L608 48l38 55.206z"/><path fill="#29410D" d="m564.103 97.5 6.362-2.064L588 62.5l-26 16.126zM638.25 131a3.25 3.25 0 1 1 0-6.5 3.25 3.25 0 0 1 0 6.5"/><path fill="#fff" d="M638.75 131a3.25 3.25 0 1 1 0-6.5 3.25 3.25 0 0 1 0 6.5"/><path fill="#99644C" d="M693.5 70c-8.284 0-15-6.716-15-15s6.716-15 15-15 15 6.716 15 15-6.716 15-15 15"/><path fill="#5C3C2E" d="M704 65.62c-5.84 5.84-15.298 5.84-21.125 0-5.827-5.838-5.84-15.295 0-21.12l10.651 10.648z"/><path fill="#99644C" d="M693.5 66.5c-6.075 0-11-5.037-11-11.25S687.425 44 693.5 44s11 5.037 11 11.25-4.925 11.25-11 11.25"/><path fill="#744C3A" d="M693.5 63.5a8.5 8.5 0 1 1 0-17 8.5 8.5 0 0 1 0 17"/><path fill="#29410D" d="m608.5 259-11.162-55s.68 39.438-22.338 55z"/><path fill="#A0BFF8" fill-rule="evenodd" d="M117 4.245V176h148.75l4.25-4.245-4.25-167.51L121.25 0zM257.54 166.73H125.22V13.525h132.31V166.73z" clip-rule="evenodd"/><path fill="#672A16" fill-rule="evenodd" d="M121 0v172h149V0zm140.776 162.717H129.244V9.293h132.532z" clip-rule="evenodd"/><path fill="#9A3F21" fill-rule="evenodd" d="m121 0 8.243 9.5h132.524L270 0zm0 172 8.243-9.5h132.524L270 172z" clip-rule="evenodd"/><path fill="#EFF3FE" d="M266 4.5H125.5V167H266z"/><path fill="#ADDEC9" fill-rule="evenodd" d="M265.989 86.636S229.785 49.27 192.5 93.947V168.5H267z" clip-rule="evenodd"/><path fill="#66D19E" fill-rule="evenodd" d="M125.5 89.635s34.903-40.427 70.106 1.139C231.488 133.129 255.066 132 267 130.57v37.93H125.5z" clip-rule="evenodd"/><path fill="#FFC043" d="M196 67c6.075 0 11-4.925 11-11s-4.925-11-11-11-11 4.925-11 11 4.925 11 11 11"/><path fill="#A0BFF8" fill-rule="evenodd" d="M52 132.767V205h51.226l3.774-3.767-3.774-68.466L55.774 129zm45.85 66.877H57.366v-61.521H97.85z" clip-rule="evenodd"/><path fill="#CCDFE5" d="M101.5 134.5H61V196h40.5z"/><path fill="#10462D" d="M85.75 162.5a5.25 5.25 0 1 0 0-10.5 5.25 5.25 0 0 0 0 10.5M76 178a3 3 0 1 0 0-6 3 3 0 0 0 0 6"/><path fill="#135562" d="M86 175h-1.267v-3.706c0-2.175-1.79-3.934-3.983-3.934-2.897 0-5.25-2.325-5.25-5.186v-10.988c0-2.861 2.353-5.186 5.25-5.186h4.616v1.252H80.75c-2.203 0-3.983 1.768-3.983 3.934v10.988c0 2.176 1.79 3.934 3.983 3.934 2.897 0 5.25 2.325 5.25 5.186z"/><path fill="#fff" fill-rule="evenodd" d="M100 134.5 84.088 196H73.5l15.912-61.5z" clip-rule="evenodd"/><path fill="#672A16" fill-rule="evenodd" d="M56 129v72h51v-72zm45.658 66.662H61.352v-61.324h40.306z" clip-rule="evenodd"/><path fill="#03582F" fill-rule="evenodd" d="M85.43 162.5c2.801 0 5.07-2.349 5.07-5.25S88.231 152 85.43 152c-.198 0-.385.041-.582.061L82.5 161.53c.829.613 1.835.97 2.93.97m-5.93 13.072c0-.378-.067-.736-.183-1.072L78.5 178a3.4 3.4 0 0 0 1-2.428" clip-rule="evenodd"/><path fill="#9A3F21" fill-rule="evenodd" d="m56 201.5 5.352-5.5h40.306l5.342 5.5zm0-72.5 5.352 5.5h40.306L107 129z" clip-rule="evenodd"/><path fill="#196B7C" fill-rule="evenodd" d="M86 175.5v-3.763c0-2.785-2.085-5.045-4.7-5.237l-.3 1.241c2.095.02 3.793 1.806 3.793 3.996v3.763z" clip-rule="evenodd"/><path fill="#9A3F21" d="M263.479 251.656s1.973 4.563-1.759 7.343H143s2.035-10.63 8.141-20.624c5.555-9.087 33.555-58.889 39.444-69.352.601-1.069 3.444-5.034 4.297-5.915 0 0 5.285-7.199 11.873-11.455 7.501-4.846 48.176 0 48.176 0l-2.013 93.259z"/><path fill="#672A16" d="M218.831 160.499s-2.375 4.564-6.108 6.716c0 0-3.112 1.697-10.98-2.685 0 0 7.754 5.516 7.754 7.223s-2.545 23.187-7.296 25.406c0 0-1.528.342-6.789-1.193s-8.654-1.559-8.654-1.559 12.985 2.348 14.982 9.845c1.918 7.184-1.918 21.552-3.105 23.429-1.188 1.874-6.279 4.008-11.877 3.454-5.601-.554-12.112-5.325-16.015-3.448-3.903 1.874-2.651 6.866-2.141 10.679.511 3.807 33.769 20.633 33.769 20.633h39.877s-1.914-12.514 16.752-9.105l-33.383-16.331z"/><path fill="#141414" d="M308.043 98.26c1.882-7.825-2.355-10.003-7.047-11.079l-69.102-14.474c-4.737-1.087-9.388 2.195-10.346 7.3l-27.874 148.729c-.945 5.035 2.061 9.947 6.736 11.006l70.865 15.554c4.703 1.065 9.665-2.17 10.656-7.226z"/><path fill="#333" d="M302.886 94.572c.653-3.52-1.648-6.97-5.146-7.717l-63.171-13.496a6.323 6.323 0 0 0-7.547 4.926l-31.295 151.128c-.728 3.515 1.518 7.019 5.015 7.827l66.124 15.266a6.326 6.326 0 0 0 7.677-5.037z"/><path fill="#fff" d="M302.015 96.044c.443-2.433-1.149-4.812-3.565-5.328L231.679 76.46a4.38 4.38 0 0 0-5.232 3.445l-28.444 143.028c-.482 2.424 1.071 4.828 3.479 5.384l68.893 15.905a4.38 4.38 0 0 0 5.318-3.501l26.322-144.676z"/><path fill="#EFF3FE" d="m296.94 91.999-60.44-12.5c43.225 14.546 54.137 67 54.137 67l9.29-49.527c.407-2.298-.933-4.523-2.987-4.973"/><path fill="#9A3F21" d="m287.881 210.922 12.855 26.391s1.485 3.842-2.44 6.936-11.009 2.736-14.218-1.45c-2.324-3.03-2.154-7.12.653-12.742z"/><path fill="#3D281E" d="M284.682 229.888s3.377-8.05 11.442-1.818l-8.35-17.301z"/><path fill="#B18977" d="M304.627 209.582s1.627 1.076 2.369 3.435-1.074 6.5-3.343 7.549c-2.273 1.05.974-10.984.974-10.984"/><path fill="#9A3F21" d="m290.637 192.001 14.061 17.811c.547.71.891 1.55.994 2.437.302 2.577.17 7.802-5.249 10.043-7.338 3.034-13.13-1.208-14.112-3.444-.661-1.503-2.711-6.535 1.878-12.12z"/><path fill="#3D281E" d="m292.121 201.223-1.871-4.163-1.411 9.555s3.737-3.948 3.282-5.392"/><path fill="#9A3F21" d="M157.886 237.844s36.049-3.616 37.435-3.525c1.183.08 8.033-.652 11.847-1.563a19 19 0 0 1 3.97-.521c4.506-.097 22.919-1.775 26.025-2.04 4.345-.37 8.859-.464 10.802 2.04s3.896 9.089-1.281 14.932c-5.176 5.844-24.281 7.646-29.736 7.461-5.453-.185-6.747-.42-8.596.021s-10.354 4.35-10.354 4.35h-38.747c0 .003-13.105-14.015-1.365-21.155"/><path fill="#C14F29" d="M234.618 247.19c-1.178-.31-2.059-1.304-2.251-2.525-.538-3.426-1.507-10.631-.253-11.267 2.937-1.493 12.114-.839 13.58-.094 1.469.745 3.386 4.553 1.559 8.86-1.286 3.033-4.037 3.917-5.506 4.29-1.239.319-3.726 1.635-7.129.736"/><rect width="64.5" height="39" fill="#000" rx="3.5" transform="matrix(.98163 .1908 -.1939 .98102 222.5 143.999)"/><path fill="#fff" d="m226.975 171.995.462.09 1.031-.987.58 1.3.472.092-.764-1.664 1.259-1.177-.462-.09-.955.913-.532-1.202-.468-.091.706 1.564zm2.622.51.462.09 1.031-.987.58 1.3.473.092-.764-1.665 1.258-1.176-.462-.09-.955.912-.532-1.201-.467-.091.705 1.564zm2.622.51.462.089 1.032-.986.579 1.3.473.091-.764-1.664 1.258-1.177-.461-.089-.956.912-.532-1.201-.467-.091.706 1.564zm2.623.509.461.09 1.032-.987.579 1.3.473.092-.764-1.664 1.259-1.177-.462-.09-.956.913-.532-1.202-.467-.091.706 1.564zm3.749.729.462.09 1.032-.987.579 1.3.473.092-.764-1.664 1.258-1.177-.462-.09-.955.912-.532-1.201-.467-.091.706 1.564zm2.622.51.462.09 1.032-.987.579 1.3.473.092-.764-1.665 1.259-1.176-.462-.09-.956.912-.532-1.201-.467-.091.706 1.564zm2.623.51.461.089 1.032-.986.58 1.299.472.092-.764-1.664 1.259-1.177-.462-.089-.956.912-.532-1.201-.467-.091.706 1.564zm2.622.509.462.09 1.031-.987.58 1.3.472.092-.764-1.664 1.259-1.177-.462-.09-.955.913-.533-1.202-.467-.091.706 1.564zm3.75.729.461.09 1.032-.987.579 1.3.473.092-.764-1.664 1.259-1.177-.462-.09-.956.912-.532-1.201-.467-.091.706 1.564zm2.622.51.462.09 1.031-.987.58 1.3.472.092-.764-1.665 1.259-1.176-.462-.09-.956.912-.532-1.201-.467-.091.706 1.564zm2.622.51.462.089 1.031-.986.58 1.299.472.092-.764-1.664 1.259-1.177-.462-.089-.955.912-.532-1.201-.468-.091.706 1.564zm2.622.509.462.09 1.031-.987.58 1.3.473.092-.764-1.664 1.258-1.177-.462-.09-.955.913-.532-1.202-.467-.091.705 1.564zm3.75.729.462.09 1.031-.987.58 1.3.472.092-.764-1.664 1.259-1.177-.462-.09-.955.912-.533-1.201-.467-.091.706 1.564zm2.622.51.462.09 1.031-.987.58 1.3.472.092-.764-1.665 1.259-1.176-.462-.09-.955.912-.532-1.201-.468-.091.706 1.564zm2.622.51.462.089 1.031-.986.58 1.299.473.092-.764-1.664 1.258-1.177-.462-.089-.955.912-.532-1.202-.467-.09.705 1.564zm2.622.509.462.09 1.032-.987.579 1.3.473.092-.764-1.664 1.258-1.177-.461-.09-.956.913-.532-1.202-.467-.091.706 1.564zm-4.059-31.091-5.912-8.75-16.83 5.193 6.694 12.702z"/><path fill="#05944F" d="M256.497 136.623a13.76 13.76 0 0 0-16.163 10.865 13.66 13.66 0 0 0 10.831 16.113 13.763 13.763 0 0 0 16.164-10.866 13.66 13.66 0 0 0-10.832-16.112m-5.743 19.385-5.514-8.203 3.086-2.074 3.348 4.98 9.404-6.322 2.068 3.076z"/><path fill="#672A16" d="M427.89 134.5 389 145.564l4.047 18.169 39.381 4.767 11.072-11.892z"/><path fill="#672A16" d="M411.987 215.694c-1.985 2.524-4.821 4.781-8.767 5.273-2.493.307-4.741-1.555-5.061-4.089l-3.549-28.267a13.9 13.9 0 0 1 3.166-10.712L410.409 163 432 165.081l-16.674 21.356.545 16.99c.139 4.425-1.172 8.811-3.884 12.267"/><path fill="#672A16" d="M384.435 208.002c-2.764 1.593-6.227 2.616-10.073 1.578-2.428-.652-3.841-3.234-3.213-5.708l7.007-27.579c.957-3.77 3.448-6.951 6.848-8.743l17.18-9.05 19.316 10.092-23.296 13.517-5.69 15.971c-1.475 4.165-4.296 7.74-8.079 9.922"/><path fill="#672A16" d="M357.734 187.588c-3.102.71-6.713.667-10.103-1.46-2.138-1.343-2.756-4.224-1.447-6.404l14.589-24.297c1.995-3.324 5.289-5.63 9.062-6.341l19.044-3.586 15.621 15.343-26.178 6.054-10.016 13.596c-2.599 3.538-6.32 6.122-10.572 7.095"/><path fill="#9A3F21" d="M431.916 164.656s-8.014 9.543-16.191 6.601c-8.173-2.938-31.115-17.43-43.051-23.158-3.995-1.919-17.878-6.761-19.141 5.261-1.098 10.448 25.222 23.498 41.293 38.906 6.939 6.649 8.153 13.717 10.167 20.123 6.689 21.243 19.656 19.046 23.164 19.046 8.149 0 23.839-8.714 25.882-26.095 2.043-17.38-2.246-37.24-22.123-40.684"/><path fill="#9A3F21" d="m479.781 195.243-9.469-46.835c-1.196-5.907-4.442-11.244-9.282-14.75-1.744-1.266-3.746-2.362-5.984-3.029-8.951-2.688-51.463-14.297-59.473-15.49-6.069-.905-22.358 2.83-29.887 4.695a24.7 24.7 0 0 0-7.203 3.058l-20.928 13.142c-2.756 1.734-2.746 5.858.068 7.495 3.827 2.22 10.809 4.996 23.241.71l30.119-7.318 36.236 20.179 2.857 1.831c1.849 1.183 2.439 3.637 1.34 5.551l8.043 14.146-22.747-7.124-14.838 20.34s1.527 46.455 24.831 60.907c23.304 14.453 44.466 29.368 49.667 36.249l99.128-.214v-17.409s-73.346-44.746-85.394-56.71c-5.302-5.259-8.836-12.067-10.325-19.424"/><path fill="#9A3F21" d="M398.948 217.358a5.11 5.11 0 0 0 1.013-3.755l-.743-6.241c-.11-.877-.689-1.596-1.47-1.836-.406-.127-.794.235-.744.68l1.31 10.946c.041.353.438.466.634.206"/><path fill="#C14F29" d="M337.315 136.818a5.33 5.33 0 0 0 4.231-.643l5.826-3.67a2.42 2.42 0 0 0 1.099-2.42.692.692 0 0 0-1.046-.482l-10.217 6.436a.427.427 0 0 0 .107.779m34.156 17.886a11.35 11.35 0 0 1-6.245 8.514 2.8 2.8 0 0 1-2.893-.267l-5.915-4.369c-3.009-5.584 1.826-12.154 8.023-10.934l5.915 4.369a2.85 2.85 0 0 1 1.115 2.687"/><path fill="#9A3F21" d="M371.55 204.45a4.8 4.8 0 0 0 2.339-3.041l1.543-6.009a2.22 2.22 0 0 0-.75-2.267.608.608 0 0 0-.968.329l-2.701 10.543c-.085.344.257.609.537.445m-25.107-23.459c1.28-.274 2.396-1.097 3.083-2.285l3.162-5.463a2.38 2.38 0 0 0-.07-2.47c-.25-.379-.777-.359-1.012.03l-5.549 9.585c-.174.314.076.673.386.603"/><path fill="#fff" d="M513.181 226.425 502 218l-45.2 61.719 11.181 8.425z"/><path fill="#102C60" d="m461 289.5 48.049-66.5L606 289.5z"/><path fill="#D1E2FF" d="M495.5 242s-29.418 33.255-38.5 38.099l7.112 5.401z"/></g><defs><clipPath id="a"><path fill="#fff" d="M0 0h700v259H0z"/></clipPath></defs></svg>