<svg xmlns="http://www.w3.org/2000/svg" width="36" height="36" fill="none"><path fill="#000" d="M9.558 31.029v2.107L13.794 35h15.03a1.864 1.864 0 0 0 1.875-1.864v-2.107zM30.698 4.971V2.864A1.864 1.864 0 0 0 28.825 1H11.472C10.413 1 9.6 1.851 9.6 2.864v2.107z"/><path fill="#fff" d="M30.699 4.971H9.558V31.07h21.14z"/><path fill="#276EF1" d="M18.397 20.046h-1.63v-6.848c0-1.824 1.508-3.323 3.34-3.323 1.834 0 3.341 1.5 3.341 3.323v2.837h-1.63v-2.837c0-.932-.773-1.702-1.71-1.702s-1.71.77-1.71 1.702z"/><path fill="#A0BFF8" d="M20.108 25.598c3.217 0 5.825-2.594 5.825-5.795s-2.608-5.795-5.825-5.795-5.825 2.595-5.825 5.795 2.608 5.795 5.825 5.795"/><path fill="#000" d="m18.723 21.91.652-1.985c-.326-.243-.57-.608-.57-1.054 0-.73.57-1.296 1.303-1.296s1.303.567 1.303 1.296c0 .446-.203.81-.57 1.054l.652 1.986z"/><path fill="#A0BFF8" d="M20.108 34.109c.54 0 .977-.436.977-.973a.975.975 0 0 0-.977-.973.975.975 0 0 0-.978.973c0 .537.438.972.978.972"/><path fill="#276EF1" d="M32.328 13.684a2.32 2.32 0 0 1-3.259 0 2.29 2.29 0 0 1 0-3.242 2.32 2.32 0 0 1 3.259 0 2.29 2.29 0 0 1 0 3.242"/><path fill="#276EF1" d="M32.328 18.263a2.32 2.32 0 0 1-3.259 0 2.29 2.29 0 0 1 0-3.242 2.32 2.32 0 0 1 3.259 0 2.29 2.29 0 0 1 0 3.242"/><path fill="#276EF1" d="M32.328 22.802a2.32 2.32 0 0 1-3.259 0 2.29 2.29 0 0 1 0-3.242 2.32 2.32 0 0 1 3.259 0c.896.932.896 2.35 0 3.242"/><path fill="#276EF1" d="M32.328 27.381a2.32 2.32 0 0 1-3.259 0 2.29 2.29 0 0 1 0-3.242 2.32 2.32 0 0 1 3.259 0 2.29 2.29 0 0 1 0 3.242M13.794 28.921V35H3V20.695c0-1.662.53-3.283 1.507-4.62l4.766-6.484a.87.87 0 0 1 1.263-.162c1.466 1.135 1.873 3.201.977 4.823l-1.466 2.674v6.16l.163.08c1.1.568 1.955 1.42 2.607 2.392.651.972.977 2.148.977 3.363"/></svg>